<svg xmlns="http://www.w3.org/2000/svg" width="118" height="40" viewBox="0 0 118 40"><defs><linearGradient id="g" x1="0" y1="0" x2="1" y2="0"><stop offset="0" stop-color="#36BCF7"/><stop offset="1" stop-color="#9D4EDD"/></linearGradient><linearGradient id="sh" x1="0" x2="1"><stop offset="0" stop-color="#fff" stop-opacity="0"/><stop offset="0.5" stop-color="#fff" stop-opacity="0.22"/><stop offset="1" stop-color="#fff" stop-opacity="0"/></linearGradient><clipPath id="c"><rect x="1" y="1" width="116" height="38" rx="19.0"/></clipPath></defs><rect x="1" y="1" width="116" height="38" rx="19.0" fill="#EA4335" stroke="#ffffff33" stroke-width="1.5"/><g clip-path="url(#c)"><rect x="-40" y="0" width="40" height="40" fill="url(#sh)"><animate attributeName="x" values="-40;158;158" keyTimes="0;0.5;1" dur="5s" repeatCount="indefinite"/></rect></g><g transform="translate(20 10) scale(0.8)"><path d="M24 5.457v13.909c0 .904-.732 1.636-1.636 1.636h-3.819V11.73L12 16.64l-6.545-4.91v9.273H1.636A1.636 1.636 0 0 1 0 19.366V5.457c0-2.023 2.309-3.178 3.927-1.964L5.455 4.64 12 9.548l6.545-4.91 1.528-1.145C21.69 2.28 24 3.434 24 5.457z" fill="#fff"/></g><text x="48" y="25.5" font-family="'Segoe UI', Ubuntu, 'Helvetica Neue', Arial, sans-serif" font-size="14" font-weight="700" fill="#fff">Gmail</text></svg>